# xmcd CD database file
#
# Track frame offsets:
#	150
#	11481
#	21822
#	34213
#	44417
#	55289
#	68472
#	80304
#	91778
#	106613
#
# Disc length: 1575 seconds
#
# Revision: 1
# Processed by: cddbd v1.5.2PL0 Copyright (c) Steve Scherf et al.
# Submitted via: CDex 1.51
#
DISCID=6a06250a
DTITLE=Various Artist - Collector's Edition Country Favorites - Disc 2
DYEAR=2012
DGENRE=Country
TTITLE0=Kitty Wells - It Wasn't God Who Made Honky Tonk Angelss
TTITLE1=Faron Young - Hello Walls
TTITLE2=Porter Wagoner - Satisfied Mind
TTITLE3=Ferlin Husky - Gone
TTITLE4=Don Gibson - Oh Lonesome Me
TTITLE5=Jack Greene - Statue Of A Fool
TTITLE6=Patsy Cline - Walkin' After Midnight
TTITLE7=Freddy Fender - Before The Next Teardrop Falls (Live)
TTITLE8=Geanne Pruett - Satin Sheets
TTITLE9=Donna Fargo - The Happiest Girl In The Whole USA
EXTD=YEAR: 2012
EXTT0=
EXTT1=
EXTT2=
EXTT3=
EXTT4=
EXTT5=
EXTT6=
EXTT7=
EXTT8=
EXTT9=
PLAYORDER=
